<?xml version="1.0" standalone="yes"?>
<svg xmlns="http://www.w3.org/2000/svg" width="550" height="488">
<path style="fill:#fefefd; stroke:none;" d="M0 0L0 488L550 488L550 0L0 0z"/>
<path style="fill:#fa8305; stroke:none;" d="M377 31.8519C370.417 32.7162 349.477 44.0824 346.742 50.2099C344.372 55.5197 346 64.2714 346 70C346 74.2222 344.754 80.9213 347.028 84.6713C349.604 88.9206 356.833 91.5416 361 93.9892C365.677 96.7361 373.312 103.148 379 102.229C385.279 101.215 405.711 90.4484 408.397 84.6211C411.023 78.9224 411.309 53.269 407.397 48.3896C403.784 43.8843 395.956 40.9946 391 38.1497C387.049 35.8817 381.839 31.2165 377 31.8519z"/>
<path style="fill:#95819e; stroke:none;" d="M441 39L441 42L442 42L443 39L441 39z"/>
<path style="fill:#48205b; stroke:none;" d="M442 40C437.374 54.2178 435.057 57 420 57L431.593 68.1736L428 84L442 75.7917L457 84C452.343 69.6885 452.081 66.788 465 58L465 57L448.649 55.3966L442 40z"/>
<path style="fill:#95819e; stroke:none;" d="M443.333 41.6667L443.667 42.3333L443.333 41.6667M440.333 43.6667L440.667 44.3333L440.333 43.6667M444.333 44.6667L444.667 45.3333L444.333 44.6667M439.333 46.6667L439.667 47.3333L439.333 46.6667M445 47L445 50L446 50L445 47M438.333 49.6667L438.667 50.3333L438.333 49.6667M446.333 51.6667L446.667 52.3333L446.333 51.6667M437.333 52.6667L437.667 53.3333L437.333 52.6667M447 54L448 55L447 54M436 55L437 56L436 55M418 56L418 57L436 57L418 56M448 56L448 57L467 57L448 56M420 58L421 59L420 58M464 58L465 59L464 58M421 59L422 60L421 59M462 59L463 60L462 59M423 60L424 61L423 60M461 60L462 61L461 60z"/>
<path style="fill:#fa8305; stroke:none;" d="M441 285C439.8 292.121 442.647 299.785 442.961 307C443.552 320.621 440.213 335.582 432.644 347C409.92 381.283 364.349 376.833 330 366.706C255.227 344.662 182.955 278.328 152.427 207C135.695 167.904 128.983 108.545 180 91.7492C204.077 83.8228 228.235 89.5021 252 95C249.297 90.2367 243.777 88.8786 239 86.6913C228.17 81.7325 217.31 77.1032 206 73.3333C157.7 57.2334 84.9185 48.4798 54.8727 101C42.5216 122.59 41.5225 147.978 44.8696 172C52.0198 223.315 81.1069 270.354 113.001 310C152.54 359.15 203.621 400.058 260 428.247C290.028 443.261 324.149 455.478 358 456.961C385.76 458.176 415.69 454.126 436.83 434.41C468.135 405.214 465.873 357.88 455 320C451.849 309.022 448.24 293.962 441 285z"/>
<path style="fill:#95819e; stroke:none;" d="M424 61L425 62L424 61M459 61L460 62L459 61M425 62L426 63L425 62M458 62L459 63L458 62M427 63L428 64L427 63M457 63L458 64L457 63M428 64L429 65L428 64M455 64L456 65L455 64M454 65L455 66L454 65M431 66L432 67L431 66M452.667 66.3333L453.333 66.6667L452.667 66.3333M432 67L432 70L433 70L432 67M452.333 69.6667L452.667 70.3333L452.333 69.6667M431 71L432 72L431 71M453.333 72.6667L453.667 73.3333L453.333 72.6667M430 74L431 75L430 74M441.667 74.3333L442.333 74.6667L441.667 74.3333M440 75L441 76L440 75M443 75L444 76L443 75M454.333 75.6667L454.667 76.3333L454.333 75.6667M429 76L429 79L430 79L429 76M439 76L440 77L439 76M445 76L446 77L445 76M437 77L438 78L437 77M446 77L447 78L446 77M436 78L437 79L436 78M447 78L448 79L447 78M428 79L428 82L429 82L428 79M435 79L436 80L435 79M449 79L450 80L449 79M455 79L456 80L455 79M433 80L434 81L433 80M450 80L451 81L450 80M432 81L433 82L432 81M456.333 81.6667L456.667 82.3333L456.333 81.6667M431 82L432 83L431 82M453 82L454 83L453 82M427 83L427 85L429 85L427 83M429 83L430 84L429 83M454 83L455 84L454 83M465 86L469 84L465 86M456.667 84.3333L457.333 84.6667L456.667 84.3333z"/>
<path style="fill:#48205b; stroke:none;" d="M490 148C492.378 136.627 502.372 121.54 501.357 110.04C500.877 104.613 490.954 99.8393 487 96.8734C482.278 93.3318 475.05 85.5362 469 84.8418C465.618 84.4536 462.504 87.5245 460 89.3712C454.018 93.783 436.546 102.154 435.502 110.015C434.403 118.297 441.836 132.141 444.576 140C445.707 143.245 446.168 147.163 450.109 147.852C462.632 150.041 477.275 148 490 148z"/>
<path style="fill:#95819e; stroke:none;" d="M470 84L471 85L470 84M471 85L472 86L471 85M313 86L315 88L313 86M472 86L473 87L472 86M309 87L309 88L312 88L309 87z"/>
<path style="fill:#48205b; stroke:none;" d="M287 94L300 144L327 138C326.274 122.119 319.611 101.874 314 87L287 94z"/>
<path style="fill:#95819e; stroke:none;" d="M462 87L463 88L462 87M474 87L475 88L474 87M305 88L305 89L308 89L305 88M370 112L370 113L420 149C420.053 129.717 422.484 106.753 427 88C407.819 91.4191 388.05 104.595 370 112M461 88L462 89L461 88M475 88L476 89L475 88M302.667 89.3333L303.333 89.6667L302.667 89.3333M459 89L460 90L459 89M298.667 90.3333L299.333 90.6667L298.667 90.3333M315.333 90.6667L315.667 91.3333L315.333 90.6667M458 90L459 91L458 90M478 90L479 91L478 90M294 91L294 92L297 92L294 91M457 91L458 92L457 91M479 91L480 92L479 91M290 92L290 93L293 93L290 92M455 92L456 93L455 92M481 92L482 93L481 92M287.667 93.3333L288.333 93.6667L287.667 93.3333M454 93L455 94L454 93M482 93L483 94L482 93M252.667 94.3333L253.333 94.6667L252.667 94.3333M286 94L287 95L286 94M316.333 94.6667L316.667 95.3333L316.333 94.6667M483 94L484 95L483 94M254.667 95.3333L255.333 95.6667L254.667 95.3333M451 95L452 96L451 95M485 95L486 96L485 95M450 96L451 97L450 96M486 96L487 97L486 96M287 97L287 100L288 100L287 97M448 97L449 98L448 97M487 97L488 98L487 97M317.333 98.6667L317.667 99.3333L317.333 98.6667M447 98L448 99L447 98M489 98L490 99L489 98M446 99L447 100L446 99M490 99L491 100L490 99M444 100L445 101L444 100M491.667 100.333L492.333 100.667L491.667 100.333M288.333 101.667L288.667 102.333L288.333 101.667M443 101L444 102L443 101M493 101L494 102L493 101M318 102L319 103L318 102M494 102L495 103L494 102M440 103L441 104L440 103M495.667 103.333L496.333 103.667L495.667 103.333M439 104L440 105L439 104M497 104L498 105L497 104M289 105L290 106L289 105M319.333 105.667L319.667 106.333L319.333 105.667M437 105L438 106L437 105M498 105L499 106L498 105M436 106L437 107L436 106M500 106L501 107L500 106M435 107L436 108L435 107M501 107L502 108L501 107M290.333 108.667L290.667 109.333L290.333 108.667M350 108L350 109L355 109L350 108M434 108L434 111L435 111L434 108M502.333 108.667L502.667 109.333L502.333 108.667M320.333 109.667L320.667 110.333L320.333 109.667M346.667 109.333L347.333 109.667L346.667 109.333z"/>
<path style="fill:#b50f0f; stroke:none;" d="M348 109.479C322.024 114.822 331.161 155.434 357 149.471C382.918 143.489 373.622 104.209 348 109.479z"/>
<path style="fill:#95819e; stroke:none;" d="M357.667 109.333L358.333 109.667L357.667 109.333z"/>
<path style="fill:#fa8305; stroke:none;" d="M343 110L344 111L343 110z"/>
<path style="fill:#95819e; stroke:none;" d="M360 110L361 111L360 110M341.667 111.333L342.333 111.667L341.667 111.333M362 111L363 112L362 111M501.333 111.667L501.667 112.333L501.333 111.667M291.333 112.667L291.667 113.333L291.333 112.667M321 112L321 115L322 115L321 112M340 112L341 113L340 112M364 112L365 113L364 112M435.333 112.667L435.667 113.333L435.333 112.667M339 113L340 114L339 113M365 113L366 114L365 113M366 114L367 115L366 114M500.333 114.667L500.667 115.333L500.333 114.667M242 115L242 116L277 117C269.732 111.494 251.019 115 242 115M367 115L368 116L367 115M436.333 115.667L436.667 116.333L436.333 115.667M192 116L194 118L192 116z"/>
<path style="fill:#48205b; stroke:none;" d="M193 116C195.551 121.392 200.085 130.828 205.326 133.972C208.896 136.115 214.996 135 219 135C230.094 135 249.628 131.184 259.787 135.603C263.467 137.204 265.09 142.673 266.753 146C271.625 155.744 280.037 167.055 281 178L247 183L247 184L281 186L280 207L220 214L220 215L280 217C280 226.873 281.898 239.794 274.363 247.682C270.647 251.572 261.995 250.67 257 251.169C240.762 252.793 224.335 255.989 208 256L208 257L269 260L247 307L281 307C278.157 322.37 295.298 338.021 308.66 324.66C313.494 319.826 313 313.293 313 307L341 307C337.245 322.814 355.634 337.685 368.61 324.521C373.381 319.68 373 313.274 373 307L399.671 305.972L412 286L286 286C289.208 278.555 295.868 262.039 303.105 258.028C309.936 254.242 324.292 257 332 257L404 257L432 257C436.052 257 441.124 257.878 444.215 254.682C449.273 249.451 452.344 241.243 456.011 235C465.356 219.088 474.192 202.873 483.603 187C487.944 179.679 496.282 170.577 490.146 162.094C484.555 154.365 474.337 156 466 156L404 156L331 156C322.018 156 307.441 158.803 299.105 155.397C285.991 150.037 287.248 124.449 275.61 117.028C270.34 113.668 258.114 116 252 116L193 116z"/>
<path style="fill:#95819e; stroke:none;" d="M292.333 116.667L292.667 117.333L292.333 116.667M336 116L337 117L336 116M368 116L369 117L368 116M322 117L323 118L322 117M335 117L336 118L335 117M369 117L370 118L369 117M499.333 117.667L499.667 118.333L499.333 117.667M277 118L278 119L277 118z"/>
<path style="fill:#fa8305; stroke:none;" d="M334 118L335 119L334 118z"/>
<path style="fill:#95819e; stroke:none;" d="M437.333 118.667L437.667 119.333L437.333 118.667M194 119L195 120L194 119M370 119L371 120L370 119M195 120L196 121L195 120M278 120L279 121L278 120M293 120L294 121L293 120M323.333 120.667L323.667 121.333L323.333 120.667M333.333 120.667L333.667 121.333L333.333 120.667M498.333 120.667L498.667 121.333L498.333 120.667M371 121L372 122L371 121M438.333 121.667L438.667 122.333L438.333 121.667M196 122L197 123L196 122M279 122L280 123L279 122M197 123L198 124L197 123M294.333 123.667L294.667 124.333L294.333 123.667M324 123L324 126L325 126L324 123M332.333 123.667L332.667 124.333L332.333 123.667z"/>
<path style="fill:#fa8305; stroke:none;" d="M372 123L373 124L372 123z"/>
<path style="fill:#95819e; stroke:none;" d="M280 124L281 125L280 124M372 124L373 125L372 124M439.333 124.667L439.667 125.333L439.333 124.667M497 124L498 125L497 124M198 125L199 126L198 125M281 125L282 126L281 125M199 126L200 127L199 126M496.333 126.667L496.667 127.333L496.333 126.667M282 127L283 128L282 127M295.333 127.667L295.667 128.333L295.333 127.667M325 127L325 130L326 130L325 127M440.333 127.667L440.667 128.333L440.333 127.667M200 128L201 129L200 128z"/>
<path style="fill:#fa8305; stroke:none;" d="M331 128L331 131L332 131L331 128z"/>
<path style="fill:#95819e; stroke:none;" d="M201 129L202 130L201 129M283 129L284 130L283 129M495 129L495 132L496 132L495 129M296 130L296 133L297 133L296 130M441.333 130.667L441.667 131.333L441.333 130.667M202 131L203 132L202 131M284 131L285 132L284 131M203 132L204 133L203 132M326 132L327 133L326 132M494 132L494 135L495 135L494 132M285 133L286 134L285 133M442.333 133.667L442.667 134.333L442.333 133.667M204 134L205 135L204 134M332 134L332 137L333 137L332 134M372 134L373 135L372 134M261.333 135.667L261.667 136.333L261.333 135.667M286 135L287 136L286 135M297 135L298 136L297 135M327 135L327 138L328 138L327 135M493.333 136.667L493.667 137.333L493.333 136.667M262.333 137.667L262.667 138.333L262.333 137.667M287 137L288 138L287 137M333.333 137.667L333.667 138.333L333.333 137.667M371 137L372 138L371 137M443 137L444 138L443 137M298.333 138.667L298.667 139.333L298.333 138.667M323 138L323 139L326 139L323 138M263.333 139.667L263.667 140.333L263.333 139.667M288 139L289 140L288 139M320.667 139.333L321.333 139.667L320.667 139.333M370 139L371 140L370 139M444.333 139.667L444.667 140.333L444.333 139.667M492 139L493 140L492 139M316.667 140.333L317.333 140.667L316.667 140.333M334 140L335 141L334 140M264 141L265 142L264 141M289 141L290 142L289 141M299 141L299 144L300 144L299 141M312 141L312 142L315 142L312 141M335 141L336 142L335 141M369 141L370 142L369 141M491 141L491 144L492 144L491 141M290.333 142.667L290.667 143.333L290.333 142.667M308 142L308 143L311 143L308 142M336 142L337 143L336 142M368 142L369 143L368 142M445 142L445 145L446 145L445 142M265 143L266 144L265 143M305.667 143.333L306.333 143.667L305.667 143.333M367 143L368 144L367 143M291.333 144.667L291.667 145.333L291.333 144.667M300 144L300 145L303 145L300 144M366 144L367 145L366 144M266 145L267 146L266 145M339 145L340 146L339 145M365 145L366 146L365 145M490.333 145.667L490.667 146.333L490.333 145.667M292.333 146.667L292.667 147.333L292.333 146.667M340 146L341 147L340 146M364 146L365 147L364 146M446.333 146.667L446.667 147.333L446.333 146.667M267 147L268 148L267 147M342 147L343 148L342 147M362 147L363 148L362 147M293 148L294 149L293 148z"/>
<path style="fill:#fa8305; stroke:none;" d="M343 148L344 149L343 148z"/>
<path style="fill:#95819e; stroke:none;" d="M344 148L345 149L344 148M360 148L361 149L360 148M447 148L447 149L490 149C478.774 144.29 459.219 148 447 148M268 149L269 150L268 149M346.667 149.333L347.333 149.667L346.667 149.333M357.667 149.333L358.333 149.667L357.667 149.333M294 150L295 151L294 150M350 150L350 151L355 151L350 150M269 151L270 152L269 151M295 152L296 153L295 152M270 153L271 154L270 153M296 154L297 155L296 154M271 155L272 156L271 155M482.667 156.333L483.333 156.667L482.667 156.333M272 157L273 158L272 157M485 157L486 158L485 157M486 158L487 159L486 158M273 159L274 160L273 159M274 161L275 162L274 161M490 162L491 163L490 162M275 163L276 164L275 163M491 163L492 164L491 163M276 165L277 166L276 165M492.333 165.667L492.667 166.333L492.333 165.667M277 167L278 168L277 167M278.333 168.667L278.667 169.333L278.333 168.667M279.333 170.667L279.667 171.333L279.333 170.667M492 171L493 172L492 171M280 173L281 174L280 173M491 173L492 174L491 173M490 175L491 176L490 175M279.667 177.333L280.333 177.667L279.667 177.333M489 177L490 178L489 177M272 178L272 179L276 179L272 178M488 178L489 179L488 178M265 179L265 180L270 180L265 179M259 180L259 181L263 181L259 180M487 180L488 181L487 180M253 181L253 182L256 182L253 181M247 182L247 183L251 183L247 182M486 182L487 183L486 182M243 183L243 184L247 184L243 183M485.333 183.667L485.667 184.333L485.333 183.667M252 184L252 185L260 185L252 184M266 185L266 186L272 186L266 185M484 185L485 186L484 185M278 186L278 187L280 200L281 200L281 186L278 186M483 187L484 188L483 187M482.333 188.667L482.667 189.333L482.333 188.667M481 190L482 191L481 190M480 192L481 193L480 192M479 194L480 195L479 194M478.333 195.667L478.667 196.333L478.333 195.667M477 197L478 198L477 197M476 199L477 200L476 199M475 201L476 202L475 201M474.333 202.667L474.667 203.333L474.333 202.667M473 204L474 205L473 204M472 206L473 207L472 206M272 207L272 208L277 208L272 207M263 208L263 209L269 209L263 208M471 208L472 209L471 208M255 209L255 210L260 210L255 209M470.333 209.667L470.667 210.333L470.333 209.667M248 210L248 211L251 211L248 210M240 211L240 212L244 212L240 211M469 211L470 212L469 211M231 212L231 213L236 213L231 212M223 213L223 214L228 214L223 213M468 213L469 214L468 213M217 214L217 215L220 215L217 214M225 215L225 216L238 216L225 215M467 215L468 216L467 215M247 216L247 217L264 217L247 216M466.333 216.667L466.667 217.333L466.333 216.667M271 217L271 218L279 218L279 238L280 238L280 217L271 217M465 218L466 219L465 218M464 220L465 221L464 220M463 222L464 223L463 222M462 223L463 224L462 223M461 225L462 226L461 225M460 227L461 228L460 227M458 230L459 231L458 230M457 232L458 233L457 232M456 234L457 235L456 234M455 235L456 236L455 235M454 237L455 238L454 237M453 239L454 240L453 239M278 240L279 241L278 240M452 241L453 242L452 241M277 242L278 243L277 242M451 242L452 243L451 242M276 244L277 245L276 244M450 244L451 245L450 244M275 246L276 247L275 246M449 246L450 247L449 246M274 248L275 249L274 248M448 248L449 249L448 248M269 249L269 250L274 250L269 249M447 249L448 250L447 249M259 250L259 251L265 251L259 250M250 251L250 252L255 252L250 251M446 251L447 252L446 251M242 252L242 253L246 253L242 252M232 253L232 254L237 254L232 253M445 253L446 254L445 253M221 254L221 255L228 255L221 254M444.333 254.667L444.667 255.333L444.333 254.667M213 255L213 256L218 256L213 255M204 256L204 258L218 258L204 256M443 256L444 257L443 256M302 257L302 258L443 258C432.02 253.393 412.944 257 401 257L302 257M223 258L223 259L238 259L223 258M301 258L302 259L301 258M246 259L246 260L257 260L246 259M300.333 259.667L300.667 260.333L300.333 259.667M266 260L266 261L269 262L266 260M299 261L300 262L299 261M267.333 262.667L267.667 263.333L267.333 262.667M298 263L299 264L298 263M266.333 264.667L266.667 265.333L266.333 264.667M297 265L298 266L297 265M296.333 266.667L296.667 267.333L296.333 266.667M265 267L266 268L265 267M295 268L296 269L295 268M264 269L265 270L264 269M294 270L295 271L294 270M263 271L264 272L263 271M293 272L294 273L293 272M262 273L263 274L262 273M292 273L293 274L292 273M261 275L262 276L261 275M291 275L292 276L291 275M260 277L261 278L260 277M290 277L291 278L290 277M259 279L260 280L259 279M289 279L290 280L289 279M288 280L289 281L288 280M258 281L259 282L258 281M439.333 281.667L439.667 282.333L439.333 281.667M287 282L288 283L287 282M257.333 283.667L257.667 284.333L257.333 283.667M440 283L440 286L441 286L440 283M286 284C290.686 289.362 310.968 286 318 286L412 286L412 285L329 285L286 284M256 285L257 286L256 285M255.333 287.667L255.667 288.333L255.333 287.667M411 287L412 288L411 287M254.333 289.667L254.667 290.333L254.333 289.667M410 289L411 290L410 289M409 290L410 291L409 290M253.333 291.667L253.667 292.333L253.333 291.667M408 292L409 293L408 292M252 294L253 295L252 294M407 294L408 295L407 294M251 296L252 297L251 296M406 296L407 297L406 296M405 297L406 298L405 297M250 298L251 299L250 298M404 299L405 300L404 299M249 300L250 301L249 300M403 301L404 302L403 301M248 302L249 303L248 302M402 303L403 304L402 303M247 304L248 305L247 304M401 304L402 305L401 304M246 306L247 307L246 306M400 306L401 307L400 306M280 307L280 310L281 310L280 307M313 307L313 317L314 317L313 307M340.333 307.667L340.667 308.333L340.333 307.667M373 309L373 317L374 317L373 309M280.333 316.667L280.667 317.333L280.333 316.667M340.333 316.667L340.667 317.333L340.333 316.667M312.333 318.667L312.667 319.333L312.333 318.667M372.333 318.667L372.667 319.333L372.333 318.667M281 319L282 320L281 319M341.333 319.667L341.667 320.333L341.333 319.667M371.333 320.667L371.667 321.333L371.333 320.667M282 321L283 322L282 321M311 321L312 322L311 321M342 321L343 322L342 321M310 322L311 323L310 322M370 322L371 323L370 322M283 323L284 324L283 323M343 323L344 324L343 323M284 324L285 325L284 324M344 324L345 325L344 324M285 325L286 326L285 325M308 325L309 326L308 325M345 325L346 326L345 325M367 325L368 326L367 325M287 326L288 327L287 326M306 326L307 327L306 326M346 326L347 327L346 326M366 326L367 327L366 326M288 327L289 328L288 327M305 327L306 328L305 327M348 327L349 328L348 327M365 327L366 328L365 327M290.667 328.333L291.333 328.667L290.667 328.333M302.667 328.333L303.333 328.667L302.667 328.333M350 328L351 329L350 328M362.667 328.333L363.333 328.667L362.667 328.333M293 329L293 330L301 330L293 329M352 329L352 330L361 330L352 329z"/>
</svg>
