<?xml version="1.0" encoding="utf-8"?>
<!-- Generator: Adobe Illustrator 22.0.0, SVG Export Plug-In . SVG Version: 6.00 Build 0)  -->
<svg version="1.1" id="Icon_Set" xmlns="http://www.w3.org/2000/svg" xmlns:xlink="http://www.w3.org/1999/xlink" x="0px" y="0px"
	 viewBox="0 0 64 64" style="enable-background:new 0 0 64 64;" xml:space="preserve">
<style type="text/css">
	<!-- .st0{fill:#40C4FF;}
	.st1{fill:#263238;}
	.st2{fill:#FFD740;}
	.st3{fill:#FF5252;}
	.st4{fill:#4DB6AC;}
	.st5{fill:#FFFFFF;}
	.st6{fill:#4FC3F7;}
	.st7{fill:#37474F;} -->
</style>
<g>
	<g>
		<path class="st1" d="M32,60.5H11.5c-1.654,0-3-1.346-3-3V39c0-0.276,0.224-0.5,0.5-0.5s0.5,0.224,0.5,0.5v18.5
			c0,1.103,0.897,2,2,2h20V28c0-0.276,0.224-0.5,0.5-0.5s0.5,0.224,0.5,0.5v32C32.5,60.276,32.276,60.5,32,60.5z"/>
	</g>
	<g>
		<path class="st1" d="M26,39.5H4c-0.176,0-0.34-0.093-0.43-0.245c-0.09-0.151-0.093-0.34-0.009-0.494l6-11
			C9.648,27.6,9.817,27.5,10,27.5h22c0.176,0,0.34,0.093,0.43,0.245c0.09,0.151,0.093,0.34,0.009,0.494l-6,11
			C26.352,39.4,26.183,39.5,26,39.5z M4.842,38.5h20.861l5.455-10H10.297L4.842,38.5z"/>
	</g>
	<g>
		<path class="st1" d="M52.5,60.5H32c-0.276,0-0.5-0.224-0.5-0.5V28c0-0.276,0.224-0.5,0.5-0.5s0.5,0.224,0.5,0.5v31.5h20
			c1.103,0,2-0.897,2-2V39c0-0.276,0.224-0.5,0.5-0.5s0.5,0.224,0.5,0.5v18.5C55.5,59.154,54.154,60.5,52.5,60.5z"/>
	</g>
	<g>
		<path class="st1" d="M60,39.5H38c-0.183,0-0.352-0.1-0.439-0.261l-6-11c-0.084-0.154-0.081-0.343,0.009-0.494
			C31.66,27.593,31.824,27.5,32,27.5h22c0.183,0,0.352,0.1,0.439,0.261l6,11c0.084,0.154,0.081,0.343-0.009,0.494
			C60.34,39.407,60.176,39.5,60,39.5z M38.297,38.5h20.861l-5.455-10H32.842L38.297,38.5z"/>
	</g>
	<g>
		<polygon class="st2" points="44.5,7 46.509,10.95 51,11.584 47.75,14.658 48.518,19 44.5,16.95 40.483,19 41.25,14.658 38,11.584 
			42.492,10.95 		"/>
		<path class="st1" d="M48.518,19.5c-0.078,0-0.156-0.018-0.227-0.055l-3.79-1.934l-3.79,1.934
			c-0.168,0.088-0.371,0.069-0.524-0.043c-0.152-0.113-0.228-0.303-0.195-0.489l0.72-4.077l-3.055-2.889
			c-0.139-0.132-0.191-0.332-0.133-0.516c0.059-0.183,0.216-0.316,0.407-0.343l4.233-0.598l1.891-3.718
			c0.171-0.336,0.721-0.336,0.892,0l1.891,3.718l4.233,0.598c0.19,0.026,0.348,0.16,0.407,0.343
			c0.058,0.184,0.006,0.384-0.133,0.516l-3.055,2.889l0.72,4.077c0.033,0.187-0.042,0.376-0.195,0.489
			C48.727,19.467,48.623,19.5,48.518,19.5z M44.5,16.45c0.078,0,0.156,0.019,0.227,0.055l3.123,1.594l-0.592-3.354
			c-0.029-0.165,0.026-0.335,0.148-0.45l2.496-2.361l-3.463-0.488c-0.162-0.022-0.302-0.123-0.376-0.269L44.5,8.104l-1.563,3.073
			c-0.074,0.146-0.214,0.246-0.376,0.269l-3.463,0.488l2.496,2.361c0.122,0.115,0.178,0.285,0.148,0.45l-0.592,3.354l3.123-1.594
			C44.345,16.469,44.422,16.45,44.5,16.45z"/>
	</g>
	<g>
		<path class="st1" d="M19.5,26.5c-0.276,0-0.5-0.224-0.5-0.5V14c0-0.276,0.224-0.5,0.5-0.5h18.144c0.276,0,0.5,0.224,0.5,0.5
			s-0.224,0.5-0.5,0.5H20V26C20,26.276,19.777,26.5,19.5,26.5z"/>
	</g>
	<g>
		<path class="st1" d="M44.5,26.5c-0.276,0-0.5-0.224-0.5-0.5v-6.805c0-0.276,0.224-0.5,0.5-0.5s0.5,0.224,0.5,0.5V26
			C45,26.276,44.777,26.5,44.5,26.5z"/>
	</g>
	<g>
		<path class="st1" d="M19.5,6.5h-4C15.224,6.5,15,6.276,15,6s0.224-0.5,0.5-0.5h4C19.776,5.5,20,5.724,20,6S19.776,6.5,19.5,6.5z"
			/>
	</g>
	<g>
		<path class="st1" d="M17.5,8.5C17.224,8.5,17,8.276,17,8V4c0-0.276,0.224-0.5,0.5-0.5S18,3.724,18,4v4
			C18,8.276,17.776,8.5,17.5,8.5z"/>
	</g>
	<g>
		<path class="st1" d="M14,12h-4c-0.276,0-0.5-0.224-0.5-0.5S9.724,11,10,11h4c0.276,0,0.5,0.224,0.5,0.5S14.276,12,14,12z"/>
	</g>
	<g>
		<path class="st1" d="M12,14c-0.276,0-0.5-0.224-0.5-0.5v-4C11.5,9.224,11.724,9,12,9s0.5,0.224,0.5,0.5v4
			C12.5,13.776,12.276,14,12,14z"/>
	</g>
	<g>
		<rect x="15" y="51" class="st0" width="10" height="4"/>
		<path class="st1" d="M25,55.5H15c-0.276,0-0.5-0.224-0.5-0.5v-4c0-0.276,0.224-0.5,0.5-0.5h10c0.276,0,0.5,0.224,0.5,0.5v4
			C25.5,55.276,25.276,55.5,25,55.5z M15.5,54.5h9v-3h-9V54.5z"/>
	</g>
	<g>
		<line class="st2" x1="22.5" y1="26" x2="32.5" y2="17"/>
		<path class="st1" d="M22.5,26.5c-0.137,0-0.273-0.056-0.372-0.165c-0.185-0.206-0.168-0.521,0.037-0.707l10-9
			c0.205-0.185,0.521-0.167,0.706,0.037c0.185,0.206,0.168,0.521-0.037,0.707l-10,9C22.739,26.458,22.62,26.5,22.5,26.5z"/>
	</g>
	<g>
		<line class="st2" x1="22.5" y1="21.5" x2="27.5" y2="17"/>
		<path class="st1" d="M22.5,22c-0.137,0-0.273-0.056-0.372-0.165c-0.185-0.206-0.168-0.521,0.037-0.707l5-4.5
			c0.205-0.185,0.521-0.167,0.706,0.037c0.185,0.206,0.168,0.521-0.037,0.707l-5,4.5C22.739,21.958,22.62,22,22.5,22z"/>
	</g>
</g>
</svg>
